<svg xmlns="http://www.w3.org/2000/svg" width="146.888" height="41.8" viewBox="0 0 146.888 41.8">
  <g id="Style-Guide" transform="translate(-32 -246.2)">
    <g id="Breakpoint---M---1024" transform="translate(32 246.2)">
      <g id="Nav">
        <g id="Desktop-Nav-Updated" transform="translate(0 0)">
          <g id="Group-13">
            <path id="Fill-1" d="M32,247.326a1.106,1.106,0,0,1,1.028-1.126H46.537c11.013,0,20.019,9.373,20.019,20.8,0,11.576-9.006,20.925-20.019,20.925H33.028A1.106,1.106,0,0,1,32,286.8Zm13.852,33.357c7.415,0,12.824-5.849,12.824-13.656,0-7.758-5.409-13.607-12.824-13.607H39.366v27.263Z" transform="translate(-32 -246.2)" fill="#282828"/>
            <path id="Fill-3" d="M196.7,277.829v-1.371c0-.441.465-.759,1.126-.759h15.051c.636,0,1.126.318,1.126.759v1.371c0,.416-.465.734-1.126.734H197.826c-.661,0-1.126-.318-1.126-.734" transform="translate(-156.393 -268.48)" fill="#282828"/>
            <path id="Fill-5" d="M191.116,316.8a12.238,12.238,0,0,0,.049,24.473,12.81,12.81,0,0,0,8.786-3.206A.954.954,0,0,0,200,336.55l-2.423-2.741c-.416-.465-.954-.343-1.542,0a8.222,8.222,0,0,1-4.6,1.468,5.571,5.571,0,0,1-5.653-5.066h15.075a1.153,1.153,0,0,0,1.126-.979c.049-.416.122-1.175.122-1.566A10.718,10.718,0,0,0,191.116,316.8Zm-4.772,9.324a4.608,4.608,0,0,1,4.6-3.965,4.4,4.4,0,0,1,4.307,3.965Z" transform="translate(-143.1 -299.522)" fill="#282828"/>
            <path id="Fill-7" d="M284.9,318.613a1.1,1.1,0,0,1,1.1-1.126h2.154a1.015,1.015,0,0,1,1,.661l.808,2.276a10.523,10.523,0,0,1,7.807-3.524,9.16,9.16,0,0,1,7.587,3.7,11.706,11.706,0,0,1,8.223-3.7c7.464,0,10.205,5.678,10.205,11.943v11.4a1.117,1.117,0,0,1-1.1,1.126h-4.723a1.117,1.117,0,0,1-1.1-1.126V328.427c0-3.108-1.468-5.066-4.381-5.066a5.85,5.85,0,0,0-4.895,2.5s.049,1.2.049,2.276v12.114a1.151,1.151,0,0,1-1.1,1.126h-4.381a1.117,1.117,0,0,1-1.1-1.126V328.427c0-3.108-1.346-5.066-4.307-5.066a5.179,5.179,0,0,0-4.895,3.769v13.142a1.151,1.151,0,0,1-1.1,1.126h-4.723a1.151,1.151,0,0,1-1.1-1.126V318.613Z" transform="translate(-223.007 -299.598)" fill="#282828"/>
            <path id="Fill-9" d="M467.737,316.8A12.237,12.237,0,1,1,455.5,328.988,12.31,12.31,0,0,1,467.737,316.8m0,18.184a5.859,5.859,0,0,0,5.727-6,5.733,5.733,0,1,0-5.727,6" transform="translate(-351.856 -299.522)" fill="#282828"/>
            <path id="Fill-11" d="M561.769,337.82l1.542-3.157a.863.863,0,0,1,1.322-.416,12.551,12.551,0,0,0,5.188,1.395c1.15,0,1.933-.465,1.933-1.468,0-1.052-.808-1.689-3.818-2.912-4.381-1.738-6.436-4.136-6.436-7.685s2.57-6.877,8.37-6.877a12.834,12.834,0,0,1,7.024,1.811,1.232,1.232,0,0,1,.514,1.566l-1.419,2.961a1.1,1.1,0,0,1-1.37.416,13.308,13.308,0,0,0-4.723-1.224c-1.37,0-1.933.587-1.933,1.346,0,1.052,1.028,1.395,3.133,2.276,4.381,1.738,7.709,3.671,7.709,8.223,0,3.842-3.3,7.1-9.055,7.1a12.736,12.736,0,0,1-7.587-2.154.922.922,0,0,1-.392-1.2" transform="translate(-431.915 -299.446)" fill="#282828"/>
          </g>
        </g>
      </g>
    </g>
  </g>
</svg>
